# xmcd
#
# Track frame offsets:
#	150
#	18188
#	34228
#	51737
#	76685
#	100998
#	124177
#	138197
#	163784
#	185060
#	202281
#	219976
#	236609
#	251189
#	273809
#
# Disc length: 3833 seconds
#
# Revision: 1
# Processed by: cddbd v1.5.2PL0 Copyright (c) Steve Scherf et al.
# Submitted via: audiograbber 1.83.01
#
DISCID=db0ef70f
DTITLE=Van Morrison - Roll With the Punches
DYEAR=2017
DGENRE=Blues
TTITLE0=Roll With The Punches
TTITLE1=Transormation
TTITLE2=I Can Tell
TTITLE3=Stormy Monday/Lonely Avenue
TTITLE4=Goin' To Chicago
TTITLE5=Fame
TTITLE6=Too Much Trouble
TTITLE7=Bring It On Home To Me
TTITLE8=Ordinary People
TTITLE9=How Far From God
TTITLE10=Teardrops From My Eyes
TTITLE11=Automobile Blues
TTITLE12=Benediction
TTITLE13=Mean Old World
TTITLE14=Ride On Josephine
EXTD=
EXTT0=
EXTT1=
EXTT2=
EXTT3=
EXTT4=
EXTT5=
EXTT6=
EXTT7=
EXTT8=
EXTT9=
EXTT10=
EXTT11=
EXTT12=
EXTT13=
EXTT14=
PLAYORDER=
